<svg xmlns="http://www.w3.org/2000/svg" data-name="Layer 1" viewBox="0 0 100 125" x="0px" y="0px"><title>collection 2</title><path d="M93.09833,16.47778A2.46546,2.46546,0,0,0,89.627,16.805L86.6861,20.358a6.86472,6.86472,0,0,0-6.78919,2.31989L72.10962,32.086l10.58551,8.76184,4.86267-5.87476,1.70038,1.40747a.6719.6719,0,0,1,.08917.946L75.05286,54.59631a1.91083,1.91083,0,1,0,2.944,2.43683l14.723-17.78735.28869-.34882a3.37842,3.37842,0,0,0-.44836-4.75677l-.34143-.2826-2.218-1.83587.48175-.582a6.86492,6.86492,0,0,0,1.01044-7.10309l2.94092-3.553a2.4655,2.4655,0,0,0-.32721-3.47131Z"/><path d="M70.18652,34.4093,41.0694,69.58679a4.32033,4.32033,0,0,0-.891,1.78925l-2.18866,9.69922a1.02583,1.02583,0,0,1-.21045.42828l-2.30121,2.78021A1.02583,1.02583,0,0,0,35.6142,85.728l1.20306.99579a1.02578,1.02578,0,0,0,1.44428-.13617l2.30139-2.7804a1.02612,1.02612,0,0,1,.38141-.28668l9.1192-3.9624a4.32,4.32,0,0,0,1.59131-1.20954L80.772,43.17114Z"/><rect x="30.16815" y="29.10443" width="32.57617" height="4"/><circle cx="23.19312" cy="34.00006" r="3"/><circle cx="23.19312" cy="48.55219" r="3"/><circle cx="23.19312" cy="63.10431" r="3"/><circle cx="23.19312" cy="77.65637" r="3"/><path d="M55.87109,12.73566H49.151a8.98879,8.98879,0,0,0-17.802,0H24.62891A2.086,2.086,0,0,0,22.543,14.82172a8.44239,8.44239,0,0,0,8.44238,8.44244h18.5293A8.44239,8.44239,0,0,0,57.957,14.82172,2.086,2.086,0,0,0,55.87109,12.73566ZM40.25,9.84784a4.13561,4.13561,0,0,1,2.64594,7.32776,5.055,5.055,0,0,1-5.29169.00012A4.13561,4.13561,0,0,1,40.25,9.84784Z"/><path d="M75.5,22.187v-4.187a2.49981,2.49981,0,0,0-2.5-2.5H61.92261a12.3392,12.3392,0,0,1-1.3501,5H70.5v7.72827Z"/><path d="M75.5,92.49994V61.32581a5.5309,5.5309,0,0,1-3.32178-1.96869L70.5,61.38464v28.6153H39.87476a4.68518,4.68518,0,0,1-.5188.26257c-.037.01612-.07459.03009-.11182.04529q-.21423.0867-.436.15228c-.05176.01538-.10352.0304-.15589.044-.14148.03638-.28491.06506-.43005.08832-.05347.00866-.106.01983-.15967.02661a4.756,4.756,0,0,1-.592.0401,4.616,4.616,0,0,1-.72827-.06354c-.08765-.01373-.17285-.03491-.25928-.05353-.14783-.03222-.29346-.06994-.43726-.11615-.104-.033-.20617-.06744-.30761-.10748-.12378-.04925-.24292-.10736-.36231-.16681-.10095-.05-.20361-.09436-.3009-.15161L10,89.99994v-69.5h9.92749a12.343,12.343,0,0,1-1.3501-5H7.5a2.49981,2.49981,0,0,0-2.5,2.5v74.5a2.49981,2.49981,0,0,0,2.5,2.5H73A2.49981,2.49981,0,0,0,75.5,92.49994Z"/><polygon points="55.332 46.552 29.693 46.552 29.693 50.552 52.021 50.552 55.332 46.552"/><polygon points="29.693 65.104 39.977 65.104 43.287 61.104 29.693 61.104 29.693 65.104"/><path d="M29.69312,79.65643s4.81127,0,4.82812-.02026l.89807-3.97974H29.69312Z"/><polygon points="62.269 79.656 62.269 75.656 58.687 75.656 55.376 79.656 62.269 79.656"/></svg>