<svg xmlns="http://www.w3.org/2000/svg" viewBox="0 0 64 80" x="0px" y="0px"><g><path d="M51,6H23a3,3,0,0,0-3,3V37a3,3,0,0,0,3,3H51a3,3,0,0,0,3-3V9A3,3,0,0,0,51,6Zm0,32H23a1,1,0,0,1-1-1V9a1,1,0,0,1,1-1H51a1,1,0,0,1,1,1V37A1,1,0,0,1,51,38Z"/><path d="M24,29a1,1,0,0,0,1,1H39a1,1,0,0,0,1-1c0-4.543-2.013-8.451-4.878-10.127a5,5,0,1,0-6.245,0C26.013,20.549,24,24.457,24,29Zm5-14a3,3,0,1,1,3,3A3,3,0,0,1,29,15Zm3,5c3.083,0,5.63,3.506,5.963,8H26.037C26.37,23.506,28.917,20,32,20Z"/><path d="M49,12H41a1,1,0,0,0-1,1v4a1,1,0,0,0,1,1h8a1,1,0,0,0,1-1V13A1,1,0,0,0,49,12Zm-1,4H42V14h6Z"/><path d="M49,20H41a1,1,0,0,0,0,2h8a1,1,0,0,0,0-2Z"/><path d="M49,24H44a1,1,0,0,0,0,2h5a1,1,0,0,0,0-2Z"/><path d="M49,28H47a1,1,0,0,0,0,2h2a1,1,0,0,0,0-2Z"/><path d="M49,33H25a1,1,0,0,0,0,2H49a1,1,0,0,0,0-2Z"/><path d="M49,42H25a3,3,0,0,0,0,6H49a3,3,0,0,0,0-6Zm0,4H25a1,1,0,0,1,0-2H49a1,1,0,0,1,0,2Z"/><path d="M46,50H28a3,3,0,0,0-3,3v2a3,3,0,0,0,3,3H46a3,3,0,0,0,3-3V53A3,3,0,0,0,46,50Zm0,6H28a1,1,0,0,1-1-1V53a1,1,0,0,1,1-1H46a1,1,0,0,1,1,1v2A1,1,0,0,1,46,56Z"/><path d="M59,4H57.816A3,3,0,0,0,55,2H12A3,3,0,0,0,9,5V6H5a3,3,0,0,0,0,6H9v2H5a3,3,0,0,0,0,6H9v2H5a3,3,0,0,0,0,6H9v2H5a3,3,0,0,0,0,6H9V59a3,3,0,0,0,3,3H55a3,3,0,0,0,3-3V27h3a1,1,0,0,0,1-1V7A3,3,0,0,0,59,4Zm1,9H58V11h2Zm0,4H58V15h2Zm-2,2h2v2H58ZM60,7V9H58V6h1A1,1,0,0,1,60,7ZM4,9A1,1,0,0,1,5,8h7v2H5A1,1,0,0,1,4,9Zm0,8a1,1,0,0,1,1-1h7v2H5A1,1,0,0,1,4,17Zm0,8a1,1,0,0,1,1-1h7v2H5A1,1,0,0,1,4,25Zm0,8a1,1,0,0,1,1-1h7v2H5A1,1,0,0,1,4,33Zm7,26V36h2a1,1,0,0,0,1-1V31a1,1,0,0,0-1-1H11V28h2a1,1,0,0,0,1-1V23a1,1,0,0,0-1-1H11V20h2a1,1,0,0,0,1-1V15a1,1,0,0,0-1-1H11V12h2a1,1,0,0,0,1-1V7a1,1,0,0,0-1-1H11V5a1,1,0,0,1,1-1h4V60H12A1,1,0,0,1,11,59Zm45,0a1,1,0,0,1-1,1H18V4H55a1,1,0,0,1,1,1V59Zm4-34H58V23h2Z"/></g></svg>